<svg xmlns="http://www.w3.org/2000/svg" width="96.686" height="96.686" viewBox="0 0 96.686 96.686"><defs><style>.a{fill:#fff;}</style></defs><path class="a" d="M87.244,96.686H9.442A9.453,9.453,0,0,1,0,87.244V84.6a1.89,1.89,0,0,1,1.888-1.888H3.21V63.639a1.888,1.888,0,1,1,3.777,0V82.712h7.365V29.084h-1.7a5.671,5.671,0,0,0-5.665,5.665V48.783a1.888,1.888,0,1,1-3.777,0V34.748a9.453,9.453,0,0,1,9.442-9.442h1.7V1.889A1.891,1.891,0,0,1,16.24,0H80.445a1.89,1.89,0,0,1,1.888,1.889V25.306h1.7a9.453,9.453,0,0,1,9.442,9.442V82.712H94.8A1.891,1.891,0,0,1,96.686,84.6v2.644A9.453,9.453,0,0,1,87.244,96.686ZM3.777,86.488v.755a5.672,5.672,0,0,0,5.665,5.665h77.8a5.671,5.671,0,0,0,5.665-5.665v-.755H3.777Zm78.557-57.4V82.712H89.7V34.748a5.671,5.671,0,0,0-5.665-5.665ZM18.128,3.777V82.712H78.557V3.777Zm33.613,87.81H44.928a1.888,1.888,0,0,1,0-3.777h6.814a1.888,1.888,0,1,1,0,3.777ZM5.1,58.729a1.889,1.889,0,1,1,1.335-.553A1.9,1.9,0,0,1,5.1,58.729Z"/><g transform="translate(15.296)"><path class="a" d="M103.939,0H42.7A2.8,2.8,0,0,0,40,2.895V83.569a2.8,2.8,0,0,0,2.7,2.895h61.242a2.8,2.8,0,0,0,2.7-2.895V2.895A2.8,2.8,0,0,0,103.939,0Zm.087,83.569a.091.091,0,0,1-.087.093H42.7a.091.091,0,0,1-.087-.093V2.895A.091.091,0,0,1,42.7,2.8h61.242a.091.091,0,0,1,.087.093Z" transform="translate(-40)"/><path class="a" d="M90.833,88.522V78.528l6.434,10.722a1.416,1.416,0,0,0,2.631-.729V73.415a1.416,1.416,0,0,0-2.833,0v9.994L90.631,72.687A1.416,1.416,0,0,0,88,73.415V88.522a1.416,1.416,0,0,0,2.833,0Z" transform="translate(-78.936 -58.592)"/><path class="a" d="M176.97,74.833a1.416,1.416,0,0,0,0-2.833h-7.554A1.416,1.416,0,0,0,168,73.416V88.523a1.416,1.416,0,0,0,1.416,1.416h7.554a1.416,1.416,0,0,0,0-2.833h-6.137V82.381c.031,0,.063,0,.094,0h3.021a1.416,1.416,0,0,0,0-2.833h-3.021c-.032,0-.063,0-.094,0V74.833Z" transform="translate(-146.049 -58.593)"/><path class="a" d="M235.064,88.854c0,.02.009.04.015.06s.02.063.031.093c0,.009.006.019.01.028a1.409,1.409,0,0,0,.119.238l.01.015c.02.031.04.061.062.09l.028.034c.017.021.035.042.053.063l.04.042.049.047.049.043.048.038.055.041.055.036c.018.011.035.023.053.033.037.021.074.04.113.058l.026.011c.033.014.067.028.1.039l.012,0,.013,0a1.414,1.414,0,0,0,.2.05l.019,0a1.409,1.409,0,0,0,.208.017h.012a1.4,1.4,0,0,0,.183-.014l.05-.008.036-.005a1.42,1.42,0,0,0,.149-.039l.02-.007a1.389,1.389,0,0,0,.167-.068l.031-.015a1.4,1.4,0,0,0,.168-.1l.021-.016a1.416,1.416,0,0,0,.136-.113l.026-.024a1.417,1.417,0,0,0,.123-.14l.03-.04a1.415,1.415,0,0,0,.1-.162l.009-.019a1.432,1.432,0,0,0,.077-.181l.007-.017,1.678-5.033,1.678,5.033c0,.006.005.011.007.017a1.415,1.415,0,0,0,.077.181l.009.019a1.418,1.418,0,0,0,.1.162l.03.041a1.417,1.417,0,0,0,.123.14l.026.024a1.406,1.406,0,0,0,.135.112l.022.016a1.392,1.392,0,0,0,.167.1l.031.015a1.426,1.426,0,0,0,.167.068l.021.008a1.419,1.419,0,0,0,.149.039l.035.005.05.008a1.4,1.4,0,0,0,.183.014h.012a1.378,1.378,0,0,0,.208-.017l.019,0a1.409,1.409,0,0,0,.2-.05l.013,0,.012,0c.034-.012.068-.025.1-.039l.026-.011q.058-.026.113-.058c.018-.01.036-.022.053-.033l.055-.036.055-.041.048-.038.049-.043.049-.047.04-.042c.018-.02.036-.041.053-.063l.028-.034c.022-.029.042-.059.062-.09l.01-.015a1.4,1.4,0,0,0,.119-.238c0-.009.006-.019.01-.028.011-.031.022-.062.031-.093s.01-.04.015-.06.009-.035.013-.053l3.021-15.107a1.416,1.416,0,0,0-2.778-.555l-1.975,9.877-1.335-4c0-.01-.008-.019-.011-.029s-.018-.047-.027-.07-.018-.042-.028-.063-.02-.039-.03-.059-.024-.044-.036-.065-.022-.034-.033-.051-.028-.042-.043-.063l-.039-.049c-.015-.019-.03-.037-.046-.055s-.033-.034-.05-.051l-.045-.044c-.02-.018-.04-.035-.061-.052l-.043-.035c-.022-.017-.045-.032-.069-.048l-.046-.029-.07-.039-.054-.028-.067-.029-.066-.026-.03-.012-.033-.009-.074-.021-.062-.014-.074-.013-.064-.008-.073-.005-.066,0-.071,0-.069,0-.068.009-.071.012-.064.015-.073.02-.033.009-.03.012-.066.026-.067.029-.055.028c-.023.012-.047.025-.069.039l-.047.03c-.023.015-.045.03-.067.046l-.045.036c-.02.016-.04.033-.059.05s-.031.03-.047.045-.033.033-.048.05-.032.037-.048.056l-.038.048c-.015.021-.03.042-.045.064s-.022.033-.032.05-.025.044-.037.066-.02.039-.03.058-.019.042-.028.063-.019.046-.027.07-.008.019-.011.029l-1.335,4-1.975-9.877a1.416,1.416,0,0,0-2.778.555L235.051,88.8C235.054,88.819,235.059,88.836,235.064,88.854Z" transform="translate(-199.338 -58.593)"/><path class="a" d="M326.7,79.554h-1.511a2.36,2.36,0,0,1,0-4.721h3.777a1.416,1.416,0,0,0,0-2.833h-3.777a5.193,5.193,0,0,0,0,10.386H326.7a2.36,2.36,0,0,1,0,4.721h-5.288a1.416,1.416,0,0,0,0,2.833H326.7a5.193,5.193,0,0,0,0-10.386Z" transform="translate(-272.815 -58.593)"/><path class="a" d="M130.253,184H81.275a1.424,1.424,0,0,0,0,2.833h48.977a1.424,1.424,0,0,0,0-2.833Z" transform="translate(-72.446 -149.652)"/><path class="a" d="M130.253,40H81.275a1.424,1.424,0,0,0,0,2.833h48.977a1.424,1.424,0,0,0,0-2.833Z" transform="translate(-72.446 -32.446)"/><path class="a" d="M120.97,243.45a8.98,8.98,0,0,0,8.97-8.97V232.97a8.97,8.97,0,1,0-17.94,0v1.511A8.98,8.98,0,0,0,120.97,243.45Zm-6.137-10.481a6.137,6.137,0,1,1,12.275,0v1.511a6.137,6.137,0,1,1-12.275,0Z" transform="translate(-99.826 -182.303)"/><path class="a" d="M103.058,328.863h0a2.949,2.949,0,0,0-3.541,2.254,4.628,4.628,0,0,1-9.009,0,2.949,2.949,0,0,0-3.541-2.254A8.922,8.922,0,0,0,80,337.608v3.021a4.443,4.443,0,0,0,4.438,4.438h21.15a4.443,4.443,0,0,0,4.438-4.438v-3.021A8.922,8.922,0,0,0,103.058,328.863Zm4.135,11.767a1.607,1.607,0,0,1-1.605,1.605H84.438a1.607,1.607,0,0,1-1.605-1.605v-3.021a6.1,6.1,0,0,1,4.765-5.984.113.113,0,0,1,.025,0c.089,0,.121.117.127.142a7.461,7.461,0,0,0,14.524,0c.006-.028.045-.163.153-.139h0a6.1,6.1,0,0,1,4.765,5.983Z" transform="translate(-72.446 -267.668)"/><path class="a" d="M278.566,232h-21.15a1.416,1.416,0,0,0,0,2.833h21.15a1.416,1.416,0,0,0,0-2.833Z" transform="translate(-220.876 -188.691)"/><path class="a" d="M278.566,272h-21.15a1.416,1.416,0,1,0,0,2.833h21.15a1.416,1.416,0,0,0,0-2.833Z" transform="translate(-220.876 -221.224)"/><path class="a" d="M274.034,312H257.416a1.416,1.416,0,1,0,0,2.833h16.618a1.416,1.416,0,1,0,0-2.833Z" transform="translate(-216.344 -253.757)"/><path class="a" d="M274.034,352H257.416a1.416,1.416,0,1,0,0,2.833h16.618a1.416,1.416,0,1,0,0-2.833Z" transform="translate(-216.344 -286.29)"/><path class="a" d="M274.034,392H257.416a1.416,1.416,0,1,0,0,2.833h16.618a1.416,1.416,0,1,0,0-2.833Z" transform="translate(-216.344 -318.944)"/></g></svg>