<svg xmlns="http://www.w3.org/2000/svg" width="97.91" height="97.909" viewBox="0 0 97.91 97.909"><defs><style>.a{fill:#fff;}</style></defs><g transform="translate(0 0)"><g transform="translate(61.598 40.923)"><g transform="translate(0 0)"><path class="a" d="M334.352,214H324.025a1.913,1.913,0,0,0-1.912,1.912v10.326a1.913,1.913,0,0,0,1.912,1.912h10.326a1.913,1.913,0,0,0,1.912-1.912V215.912A1.912,1.912,0,0,0,334.352,214Zm-1.912,10.326h-6.5v-6.5h6.5Z" transform="translate(-322.113 -214)"/></g></g><g transform="translate(41.901 40.923)"><g transform="translate(0 0)"><path class="a" d="M231.352,214H221.025a1.913,1.913,0,0,0-1.912,1.912v10.326a1.913,1.913,0,0,0,1.912,1.912h10.326a1.913,1.913,0,0,0,1.912-1.912V215.912A1.912,1.912,0,0,0,231.352,214Zm-1.912,10.326h-6.5v-6.5h6.5Z" transform="translate(-219.113 -214)"/></g></g><g transform="translate(22.204 40.923)"><g transform="translate(0 0)"><path class="a" d="M128.352,214H118.025a1.913,1.913,0,0,0-1.912,1.912v10.326a1.913,1.913,0,0,0,1.912,1.912h10.326a1.912,1.912,0,0,0,1.912-1.912V215.912A1.912,1.912,0,0,0,128.352,214Zm-1.912,10.326h-6.5v-6.5h6.5Z" transform="translate(-116.113 -214)"/></g></g><g transform="translate(22.204 66.548)"><g transform="translate(0 0)"><path class="a" d="M137.722,348h-19.7a1.913,1.913,0,0,0-1.912,1.912v10.326a1.913,1.913,0,0,0,1.912,1.912h19.7a1.913,1.913,0,0,0,1.912-1.912V349.912A1.912,1.912,0,0,0,137.722,348Zm-1.912,10.326H119.938v-6.5H135.81Z" transform="translate(-116.113 -348)"/></g></g><g transform="translate(50.434 66.548)"><g transform="translate(0 0)"><path class="a" d="M286.777,348H265.649a1.912,1.912,0,0,0,0,3.825h21.128a1.912,1.912,0,1,0,0-3.825Z" transform="translate(-263.737 -348)"/></g></g><g transform="translate(71.562 74.197)"><g transform="translate(0 0)"><path class="a" d="M377.484,388.56a1.911,1.911,0,1,0,.56,1.352A1.926,1.926,0,0,0,377.484,388.56Z" transform="translate(-374.22 -388)"/></g></g><g transform="translate(50.434 74.197)"><g transform="translate(0 0)"><path class="a" d="M279.149,388h-13.5a1.912,1.912,0,0,0,0,3.825h13.5a1.912,1.912,0,0,0,0-3.825Z" transform="translate(-263.737 -388)"/></g></g><g transform="translate(25.018 7.404)"><g transform="translate(0 0)"><path class="a" d="M136.566,38.716a5.737,5.737,0,1,0,5.737,5.737A5.743,5.743,0,0,0,136.566,38.716Zm0,7.649a1.912,1.912,0,1,1,1.912-1.912A1.914,1.914,0,0,1,136.566,46.365Z" transform="translate(-130.829 -38.716)"/></g></g><g transform="translate(0 0)"><path class="a" d="M96,83.759H94.659V35.189A9.572,9.572,0,0,0,85.1,25.627H83.376V1.912A1.913,1.913,0,0,0,81.464,0H16.446a1.913,1.913,0,0,0-1.912,1.912V25.627H12.812a9.572,9.572,0,0,0-9.561,9.561V49.4a1.912,1.912,0,1,0,3.825,0V35.189a5.743,5.743,0,0,1,5.737-5.737h1.721V83.759H7.076V64.444a1.912,1.912,0,1,0-3.825,0V83.759H1.912A1.913,1.913,0,0,0,0,85.671v2.677A9.572,9.572,0,0,0,9.561,97.91H88.348a9.572,9.572,0,0,0,9.561-9.562V85.671A1.913,1.913,0,0,0,96,83.759Zm-12.621-49.8v-4.5H85.1a5.743,5.743,0,0,1,5.737,5.737v48.57H83.376ZM18.358,3.825H79.552V29.337L63.359,13.145a1.912,1.912,0,0,0-2.7,0l-7.946,7.946L49.415,17.8a1.913,1.913,0,0,0-2.7,0L31.233,33.274H18.358ZM55.413,23.8,62.007,17.2,78.08,33.274H64.892Zm4.07,9.478H36.642l11.42-11.42ZM18.358,37.1H79.552V58.9H18.358Zm0,25.625H79.552V83.759H18.358ZM94.085,88.348a5.743,5.743,0,0,1-5.737,5.737H9.561a5.743,5.743,0,0,1-5.737-5.737v-.765h90.26Z"/></g><g transform="translate(43.585 88.922)"><g transform="translate(0 0)"><path class="a" d="M236.729,465h-6.9a1.912,1.912,0,1,0,0,3.825h6.9a1.912,1.912,0,0,0,0-3.825Z" transform="translate(-227.917 -465)"/></g></g><g transform="translate(3.251 55.648)"><g transform="translate(0 0)"><path class="a" d="M20.264,291.56a1.911,1.911,0,1,0,.56,1.352A1.925,1.925,0,0,0,20.264,291.56Z" transform="translate(-17 -291)"/></g></g></g></svg>