<svg xmlns="http://www.w3.org/2000/svg" width="96.686" height="96.686" viewBox="0 0 96.686 96.686"><defs><style>.a{fill:#fff;}</style></defs><path class="a" d="M87.243,96.686H9.442A9.453,9.453,0,0,1,0,87.244V84.6a1.891,1.891,0,0,1,1.888-1.888H3.21V63.639a1.889,1.889,0,0,1,3.777,0V82.711h7.365V29.083h-1.7a5.672,5.672,0,0,0-5.665,5.665V48.783a1.889,1.889,0,0,1-3.777,0V34.748a9.453,9.453,0,0,1,9.442-9.442h1.7V1.888A1.89,1.89,0,0,1,16.24,0H80.445a1.89,1.89,0,0,1,1.888,1.888V25.307h1.7a9.453,9.453,0,0,1,9.442,9.442V82.711H94.8A1.891,1.891,0,0,1,96.685,84.6v2.644A9.453,9.453,0,0,1,87.243,96.686ZM3.777,86.488v.755a5.672,5.672,0,0,0,5.666,5.665h77.8a5.672,5.672,0,0,0,5.665-5.665v-.755H3.777Zm78.557-57.4V82.711H89.7V34.748a5.671,5.671,0,0,0-5.665-5.665ZM18.128,3.777V82.711H78.557V3.777Zm33.614,87.81H44.928a1.888,1.888,0,1,1,0-3.777h6.814a1.888,1.888,0,1,1,0,3.777ZM5.1,58.729a1.89,1.89,0,1,1,1.335-.553A1.9,1.9,0,0,1,5.1,58.729Z" transform="translate(0)"/><path class="a" d="M86.3,56.182H74.689V51.874a4.691,4.691,0,0,0-9.381,0v4.308H53.7A3.427,3.427,0,0,0,50.278,59.6v2.344A3.43,3.43,0,0,0,52.633,65.2L54.6,80.185a5.877,5.877,0,0,0,5.811,5.1H79.585a5.877,5.877,0,0,0,5.811-5.1L87.363,65.2a3.429,3.429,0,0,0,2.355-3.251V59.6A3.428,3.428,0,0,0,86.3,56.182Zm0,2.872a.552.552,0,0,1,.551.551v2.344a.552.552,0,0,1-.551.552H74.689V59.054Zm-18.116-7.18a1.819,1.819,0,1,1,3.637,0V67.382a1.819,1.819,0,1,1-3.637,0ZM53.149,59.6a.552.552,0,0,1,.552-.551H65.307V62.5H53.7a.553.553,0,0,1-.552-.552Zm29.4,20.207a3,3,0,0,1-2.963,2.6H60.411a3,3,0,0,1-2.964-2.6l-1.894-14.44h9.755v2.01a4.691,4.691,0,1,0,9.381,0v-2.01h9.755Zm0,0" transform="translate(-28.509 -39.879)"/><path class="a" d="M295.395,77.742h-6.127a1.436,1.436,0,0,0,0,2.872h6.127a1.436,1.436,0,0,0,0-2.872Zm0,0" transform="translate(-261.804 -26.521)"/><path class="a" d="M295.395,77.742h-6.127a1.436,1.436,0,0,0,0,2.872h6.127a1.436,1.436,0,0,0,0-2.872Zm0,0" transform="translate(-221.959 -55.225)"/><path class="a" d="M295.395,77.742h-6.127a1.436,1.436,0,0,0,0,2.872h6.127a1.436,1.436,0,0,0,0-2.872Zm0,0" transform="translate(-261.804 -13.113)"/><path class="a" d="M295.395,77.742h-6.127a1.436,1.436,0,0,0,0,2.872h6.127a1.436,1.436,0,0,0,0-2.872Zm0,0" transform="translate(-221.959 -41.817)"/><path class="a" d="M356.025,80.614h31.811c1.267,0,2.293-.642,2.293-1.435s-1.026-1.436-2.293-1.436H356.025c-1.268,0-2.295.643-2.295,1.436S354.757,80.614,356.025,80.614Zm0,0" transform="translate(-315.258 -26.521)"/><path class="a" d="M356.025,80.614h31.811c1.267,0,2.293-.642,2.293-1.435s-1.026-1.436-2.293-1.436H356.025c-1.268,0-2.295.643-2.295,1.436S354.757,80.614,356.025,80.614Zm0,0" transform="translate(-315.258 -13.113)"/><path class="a" d="M295.395,113.23h-6.127a1.436,1.436,0,0,0,0,2.872h6.127a1.436,1.436,0,0,0,0-2.872Zm0,0" transform="translate(-261.804 -55.307)"/><path class="a" d="M295.395,113.23h-6.127a1.436,1.436,0,0,0,0,2.872h6.127a1.436,1.436,0,0,0,0-2.872Zm0,0" transform="translate(-221.959 -84.011)"/><path class="a" d="M295.395,113.23h-6.127a1.436,1.436,0,0,0,0,2.872h6.127a1.436,1.436,0,0,0,0-2.872Zm0,0" transform="translate(-261.804 -41.9)"/><path class="a" d="M295.395,113.23h-6.127a1.436,1.436,0,0,0,0,2.872h6.127a1.436,1.436,0,0,0,0-2.872Zm0,0" transform="translate(-221.959 -70.603)"/><path class="a" d="M390.13,114.666c0-.793-1.026-1.435-2.293-1.435H356.025c-1.268,0-2.294.643-2.294,1.435s1.026,1.436,2.294,1.436h31.811C389.1,116.1,390.13,115.459,390.13,114.666Zm0,0" transform="translate(-315.259 -55.308)"/><path class="a" d="M390.13,114.666c0-.793-1.026-1.435-2.293-1.435H356.025c-1.268,0-2.294.643-2.294,1.435s1.026,1.436,2.294,1.436h31.811C389.1,116.1,390.13,115.459,390.13,114.666Zm0,0" transform="translate(-315.259 -41.9)"/></svg>