<svg xmlns="http://www.w3.org/2000/svg" width="52.879" height="52.879" viewBox="0 0 52.879 52.879"><defs><style>.a{fill:#fff;}</style></defs><g transform="translate(0 0)"><path class="a" d="M22.175,11.088A11.088,11.088,0,1,0,11.088,22.175,11.1,11.1,0,0,0,22.175,11.088Zm-20.469,0a9.382,9.382,0,1,1,9.382,9.382A9.393,9.393,0,0,1,1.706,11.088Zm0,0"/><path class="a" d="M82.559,58.559a.855.855,0,0,1,.853.853h1.706a2.555,2.555,0,0,0-1.706-2.4V56H81.706v1.01a2.552,2.552,0,0,0,.853,4.96.853.853,0,1,1-.853.853H80a2.555,2.555,0,0,0,1.706,2.4v1.01h1.706v-1.01a2.552,2.552,0,0,0-.853-4.96.853.853,0,1,1,0-1.706Zm0,0" transform="translate(-71.471 -50.03)"/><path class="a" d="M64.59,33.706a5.977,5.977,0,0,1,5.97,5.97A5.909,5.909,0,0,1,69.3,43.332l1.347,1.047a7.6,7.6,0,0,0,1.617-4.7A7.685,7.685,0,0,0,64.59,32a7.6,7.6,0,0,0-4.7,1.617l1.047,1.347a5.909,5.909,0,0,1,3.656-1.258Zm0,0" transform="translate(-53.502 -28.588)"/><path class="a" d="M44.379,70.649,43.332,69.3a5.909,5.909,0,0,1-3.656,1.258,5.977,5.977,0,0,1-5.97-5.97,5.909,5.909,0,0,1,1.258-3.656l-1.347-1.047A7.6,7.6,0,0,0,32,64.59a7.685,7.685,0,0,0,7.676,7.676,7.6,7.6,0,0,0,4.7-1.617Zm0,0" transform="translate(-28.588 -53.502)"/><path class="a" d="M162.115,15.352H160.41V8.529H158.7V5.117h-4.264V0h-1.706V5.117h-4.264V8.529h-1.706v6.823h-1.706v11.94h-1.706V22.175h-1.706V18.763h-2.559V14.5h-1.706v4.264h-2.559v3.412h-1.706v5.117h-3.412V51.173H128v1.706h35.821V51.173h-1.706Zm-11.94-8.529H157V8.529h-6.823Zm-1.706,3.412H158.7v5.117H157V11.94h-1.706v3.412h-3.412V11.94h-1.706v3.412h-1.706Zm11.94,6.823V51.173h-2.559V42.644h-8.529v8.529h-2.559V17.058Zm-4.264,34.115h-5.117V44.35h5.117Zm-19.616-30.7h3.412v1.706h-3.412Zm-1.706,3.412h6.823v3.412h-2.559V25.587h-1.706v1.706h-2.559ZM131.412,29h13.646V51.173h-1.706V30.7h-1.706V51.173h-2.559V30.7h-1.706V51.173h-2.559V30.7h-1.706V51.173h-1.706Zm0,0" transform="translate(-114.354)"/><path class="a" d="M320,176h1.706v1.706H320Zm0,0" transform="translate(-285.885 -157.237)"/><path class="a" d="M360,176h1.706v1.706H360Zm0,0" transform="translate(-321.62 -157.237)"/><path class="a" d="M400,176h1.706v1.706H400Zm0,0" transform="translate(-357.356 -157.237)"/><path class="a" d="M320,224h1.706v1.706H320Zm0,0" transform="translate(-285.885 -200.119)"/><path class="a" d="M360,224h1.706v1.706H360Zm0,0" transform="translate(-321.62 -200.119)"/><path class="a" d="M400,224h1.706v1.706H400Zm0,0" transform="translate(-357.356 -200.119)"/><path class="a" d="M320,272h1.706v1.706H320Zm0,0" transform="translate(-285.885 -243.002)"/><path class="a" d="M360,272h1.706v1.706H360Zm0,0" transform="translate(-321.62 -243.002)"/><path class="a" d="M400,272h1.706v1.706H400Zm0,0" transform="translate(-357.356 -243.002)"/><path class="a" d="M320,320h1.706v1.706H320Zm0,0" transform="translate(-285.885 -285.885)"/><path class="a" d="M360,320h1.706v1.706H360Zm0,0" transform="translate(-321.62 -285.885)"/><path class="a" d="M400,320h1.706v1.706H400Zm0,0" transform="translate(-357.356 -285.885)"/><path class="a" d="M320,368h1.706v1.706H320Zm0,0" transform="translate(-285.885 -328.767)"/><path class="a" d="M360,368h1.706v1.706H360Zm0,0" transform="translate(-321.62 -328.767)"/><path class="a" d="M400,368h1.706v1.706H400Zm0,0" transform="translate(-357.356 -328.767)"/><path class="a" d="M0,240H1.706v1.706H0Zm0,0" transform="translate(0 -214.413)"/><path class="a" d="M0,272H1.706v10.235H0Zm0,0" transform="translate(0 -243.002)"/><path class="a" d="M48,296h1.706v1.706H48Zm0,0" transform="translate(-42.883 -264.443)"/><path class="a" d="M48,328h1.706v10.235H48Zm0,0" transform="translate(-42.883 -293.032)"/><path class="a" d="M96,240h1.706v1.706H96Zm0,0" transform="translate(-85.765 -214.413)"/><path class="a" d="M96,272h1.706v10.235H96Zm0,0" transform="translate(-85.765 -243.002)"/><path class="a" d="M480,480h1.706v1.706H480Zm0,0" transform="translate(-428.827 -428.827)"/><path class="a" d="M96,480h1.706v1.706H96Zm0,0" transform="translate(-85.765 -428.827)"/></g></svg>