<svg xmlns="http://www.w3.org/2000/svg" width="23.199" height="21.5" viewBox="0 0 23.199 21.5"><defs><style>.a{fill:#302e32;}</style></defs><g transform="translate(0 -17.25)"><g transform="translate(0 17.25)"><path class="a" d="M22.534,228.248a.662.662,0,0,0-.665.665v6.046a2.983,2.983,0,0,1-2.979,2.979H4.308a2.983,2.983,0,0,1-2.979-2.979v-6.144a.665.665,0,0,0-1.329,0v6.144a4.313,4.313,0,0,0,4.308,4.308H18.891a4.313,4.313,0,0,0,4.308-4.308v-6.046A.665.665,0,0,0,22.534,228.248Z" transform="translate(0 -217.767)"/><path class="a" d="M140.65,33.472a.669.669,0,0,0,.468.2.649.649,0,0,0,.468-.2l4.224-4.224a.665.665,0,1,0-.94-.94L141.782,31.4V17.915a.665.665,0,0,0-1.329,0V31.4l-3.092-3.092a.665.665,0,1,0-.94.94Z" transform="translate(152.713 33.669) rotate(180)"/></g></g></svg>